<svg width="76" height="18" viewBox="0 0 76 18" fill="none" xmlns="http://www.w3.org/2000/svg">
<path d="M12.3811 8.80582C12.3624 9.47782 11.9424 10.1405 11.1211 10.7938C10.3184 11.4472 9.33843 11.7738 8.18109 11.7738C7.69576 11.7738 7.45309 11.6338 7.45309 11.3538C7.45309 11.2418 7.53709 11.1578 7.70509 11.1018C8.82509 10.4485 9.53443 9.91649 9.83309 9.50582C9.87043 9.43116 9.88909 9.34716 9.88909 9.25382C9.88909 9.16049 9.84243 9.11382 9.74909 9.11382C8.16243 9.33782 6.65043 10.2058 5.21309 11.7178C3.77576 13.2298 3.05709 14.4058 3.05709 15.2458C3.05709 15.6378 3.20643 15.8338 3.50509 15.8338C4.88643 15.8338 6.34243 15.4325 7.87309 14.6298C9.40376 13.8272 11.6811 12.3525 14.7051 10.2058C14.9104 10.0565 15.2184 9.83249 15.6291 9.53382C16.0584 9.23516 16.3104 9.05782 16.3851 9.00182C16.5531 9.13249 16.6371 9.29116 16.6371 9.47782C16.6371 9.66449 16.5531 9.83249 16.3851 9.98182C15.4518 10.9152 14.2384 11.9605 12.7451 13.1178C11.2704 14.2752 9.57176 15.3765 7.64909 16.4218C5.72643 17.4485 4.15843 17.9618 2.94509 17.9618C1.50776 17.9618 0.789094 17.1965 0.789094 15.6658C0.789094 14.6018 1.14376 13.5658 1.85309 12.5578C2.56243 11.5312 3.43043 10.6725 4.45709 9.98182C5.48376 9.29116 6.55709 8.74049 7.67709 8.32982C8.79709 7.90049 9.69309 7.68582 10.3651 7.68582C11.0558 7.68582 11.5504 7.77916 11.8491 7.96582C12.1478 8.15249 12.3064 8.33916 12.3251 8.52582L12.3811 8.80582ZM15.0372 15.6098C15.6532 15.6098 16.8665 15.0592 18.6772 13.9578C20.5065 12.8565 22.1678 11.7552 23.6612 10.6538L25.9292 9.00182C26.0972 9.13249 26.1812 9.29116 26.1812 9.47782C26.1812 9.66449 26.0878 9.84182 25.9012 10.0098C25.7145 10.1778 25.4438 10.4205 25.0892 10.7378C24.7532 11.0552 24.0998 11.6245 23.1292 12.4458C22.1585 13.2672 21.2532 14.0138 20.4132 14.6858C18.2105 16.4592 16.5865 17.5045 15.5412 17.8218C15.2052 17.9152 14.8598 17.9618 14.5052 17.9618C14.1505 17.9618 13.8705 17.9338 13.6652 17.8778C13.4598 17.8218 13.2358 17.7005 12.9932 17.5138C12.5078 17.1032 12.2652 16.1885 12.2652 14.7698C12.2652 14.3778 12.4332 13.7805 12.7692 12.9778C13.1052 12.1752 13.6558 11.2045 14.4212 10.0658C15.2052 8.92716 16.1105 7.78849 17.1372 6.64982C18.1825 5.51116 19.4985 4.37249 21.0852 3.23382C22.6905 2.09516 24.3985 1.17116 26.2092 0.461823C26.4892 0.36849 26.7412 0.321823 26.9652 0.321823C27.1892 0.321823 27.3945 0.42449 27.5812 0.629824C27.7678 0.816491 27.8985 1.01249 27.9732 1.21782L28.1132 1.49782C28.1132 1.92716 27.4505 2.86982 26.1252 4.32582C24.7625 5.83782 23.1852 7.28449 21.3932 8.66582C19.6198 10.0285 17.9678 11.1952 16.4372 12.1658C15.1865 12.9872 14.5612 13.8458 14.5612 14.7418C14.5612 15.3205 14.7198 15.6098 15.0372 15.6098ZM17.5572 9.81382C18.0238 9.81382 19.4332 8.66582 21.7852 6.36982C24.1558 4.07382 25.3412 2.79516 25.3412 2.53382L25.3132 2.47782L24.8372 2.70182C23.8665 3.33649 22.5692 4.41916 20.9452 5.94982C19.3398 7.48049 18.2292 8.67516 17.6132 9.53382C17.5385 9.62716 17.5012 9.70182 17.5012 9.75782C17.5012 9.79516 17.5198 9.81382 17.5572 9.81382ZM25.484 16.2818L25.708 14.4898C25.708 14.4338 25.6893 14.4058 25.652 14.4058C25.6333 14.4058 25.5867 14.4432 25.512 14.5178C25.2693 14.7792 24.9613 15.1058 24.588 15.4978C24.2147 15.8712 23.5707 16.3845 22.656 17.0378C21.76 17.6725 21.032 17.9898 20.472 17.9898C20.3787 17.9712 20.2667 17.9338 20.136 17.8778C19.9867 17.8405 19.8 17.6912 19.576 17.4298C19.352 17.1685 19.24 16.7952 19.24 16.3098C19.24 15.8245 19.6133 15.0872 20.36 14.0978C21.088 13.0898 21.9653 12.1098 22.992 11.1578C24.0187 10.1872 25.1573 9.34716 26.408 8.63782C27.6773 7.92849 28.7787 7.57382 29.712 7.57382C30.0667 7.59249 30.3467 7.84449 30.552 8.32982C30.7387 8.14316 30.9067 8.04982 31.056 8.04982C31.2053 8.04982 31.3827 8.16182 31.588 8.38582C31.7 8.40449 31.812 8.46982 31.924 8.58182C32.036 8.67516 32.092 8.81516 32.092 9.00182C32.092 9.18849 31.9613 9.39382 31.7 9.61782C31.308 10.1032 30.8507 10.6538 30.328 11.2698C29.8053 11.8858 29.432 12.3338 29.208 12.6138C28.984 12.8752 28.7507 13.1738 28.508 13.5098C28.0973 14.0885 27.8733 14.5552 27.836 14.9098C29.74 13.9952 32.736 12.0258 36.824 9.00182C36.992 9.13249 37.076 9.29116 37.076 9.47782C37.076 9.66449 37.0013 9.82316 36.852 9.95382C36.7027 10.0845 36.516 10.2432 36.292 10.4298C36.0867 10.6165 35.6667 10.9805 35.032 11.5218C34.3973 12.0632 33.7813 12.5858 33.184 13.0898C32.6053 13.5752 31.9333 14.1258 31.168 14.7418C30.4213 15.3392 29.7493 15.8525 29.152 16.2818C27.7147 17.3085 26.8187 17.8218 26.464 17.8218C26.1093 17.8218 25.8573 17.7098 25.708 17.4858C25.5587 17.2618 25.484 16.8605 25.484 16.2818ZM22.628 15.1058C22.852 15.1058 23.5333 14.6485 24.672 13.7338C25.8293 12.8192 26.9213 11.9045 27.948 10.9898L29.516 9.61782C29.5907 9.54316 29.628 9.49649 29.628 9.47782C29.628 9.44049 29.6 9.42182 29.544 9.42182C28.8347 9.42182 27.9107 9.83249 26.772 10.6538C25.6333 11.4565 24.644 12.3152 23.804 13.2298C22.9827 14.1258 22.572 14.7325 22.572 15.0498C22.572 15.0872 22.5907 15.1058 22.628 15.1058ZM34.8509 15.4138C35.5042 15.4138 36.1015 15.0218 36.6429 14.2378C37.2029 13.4352 37.5949 12.6325 37.8189 11.8298C38.0429 11.0085 38.1549 10.3552 38.1549 9.86982C38.1549 9.73916 38.0522 9.67382 37.8469 9.67382C37.6602 9.67382 37.4362 9.77649 37.1749 9.98182L33.5069 12.8098C33.2455 12.9592 32.9469 13.0338 32.6109 13.0338C32.2749 13.0338 32.1069 12.9125 32.1069 12.6698C32.1069 12.5018 32.1255 12.3898 32.1629 12.3338C32.2189 12.2778 32.3589 12.1845 32.5829 12.0538C33.9642 11.1018 35.8495 9.55249 38.2389 7.40582C38.5189 7.03249 38.7709 6.84582 38.9949 6.84582C39.2189 6.84582 39.5922 6.92049 40.1149 7.06982C40.6375 7.20049 40.8989 7.35916 40.8989 7.54582C40.8989 8.66582 40.7962 9.68316 40.5909 10.5978C40.3855 11.5125 40.1709 12.2125 39.9469 12.6978C39.7415 13.1645 39.6389 13.4165 39.6389 13.4538C39.6389 13.4912 39.6575 13.5098 39.6949 13.5098C39.7322 13.5098 39.8069 13.4818 39.9189 13.4258C41.3189 12.7165 43.1015 11.5592 45.2669 9.95382L45.9389 9.44982C46.1069 9.58049 46.1909 9.73916 46.1909 9.92582C46.1909 10.1125 46.1069 10.2805 45.9389 10.4298C45.9015 10.4298 45.4162 10.8218 44.4829 11.6058C43.5682 12.3898 42.5415 13.2485 41.4029 14.1818C40.2829 15.0965 39.0789 15.9365 37.7909 16.7018C36.5029 17.4672 35.5042 17.8498 34.7949 17.8498C33.0402 17.8498 32.1629 16.7952 32.1629 14.6858C32.1629 14.5178 32.2282 14.3685 32.3589 14.2378C32.5082 14.0885 32.6949 14.0138 32.9189 14.0138C32.9189 14.1072 32.9655 14.2565 33.0589 14.4618C33.1709 14.6485 33.2829 14.8072 33.3949 14.9378C33.7309 15.2552 34.2162 15.4138 34.8509 15.4138ZM44.5306 15.4138C45.1839 15.4138 45.7812 15.0218 46.3226 14.2378C46.8826 13.4352 47.2746 12.6325 47.4986 11.8298C47.7226 11.0085 47.8346 10.3552 47.8346 9.86982C47.8346 9.73916 47.7319 9.67382 47.5266 9.67382C47.3399 9.67382 47.1159 9.77649 46.8546 9.98182L43.1866 12.8098C42.9252 12.9592 42.6266 13.0338 42.2906 13.0338C41.9546 13.0338 41.7866 12.9125 41.7866 12.6698C41.7866 12.5018 41.8052 12.3898 41.8426 12.3338C41.8986 12.2778 42.0386 12.1845 42.2626 12.0538C43.6439 11.1018 45.5292 9.55249 47.9186 7.40582C48.1986 7.03249 48.4506 6.84582 48.6746 6.84582C48.8986 6.84582 49.2719 6.92049 49.7946 7.06982C50.3172 7.20049 50.5786 7.35916 50.5786 7.54582C50.5786 8.66582 50.4759 9.68316 50.2706 10.5978C50.0652 11.5125 49.8506 12.2125 49.6266 12.6978C49.4212 13.1645 49.3186 13.4165 49.3186 13.4538C49.3186 13.4912 49.3372 13.5098 49.3746 13.5098C49.4119 13.5098 49.4866 13.4818 49.5986 13.4258C50.9986 12.7165 52.7812 11.5592 54.9466 9.95382L55.6186 9.44982C55.7866 9.58049 55.8706 9.73916 55.8706 9.92582C55.8706 10.1125 55.7866 10.2805 55.6186 10.4298C55.5812 10.4298 55.0959 10.8218 54.1626 11.6058C53.2479 12.3898 52.2212 13.2485 51.0826 14.1818C49.9626 15.0965 48.7586 15.9365 47.4706 16.7018C46.1826 17.4672 45.1839 17.8498 44.4746 17.8498C42.7199 17.8498 41.8426 16.7952 41.8426 14.6858C41.8426 14.5178 41.9079 14.3685 42.0386 14.2378C42.1879 14.0885 42.3746 14.0138 42.5986 14.0138C42.5986 14.1072 42.6452 14.2565 42.7386 14.4618C42.8506 14.6485 42.9626 14.8072 43.0746 14.9378C43.4106 15.2552 43.8959 15.4138 44.5306 15.4138ZM60.7889 3.59782C60.9756 3.59782 61.0969 3.63516 61.1529 3.70982C61.4143 4.02716 61.5449 4.28849 61.5449 4.49382C61.5449 4.68049 61.4889 4.84849 61.3769 4.99782C61.2649 5.12849 61.1249 5.28716 60.9569 5.47382C60.8076 5.64182 60.4903 5.88449 60.0049 6.20182C59.5383 6.50049 59.0809 6.64982 58.6329 6.64982C58.2969 6.59382 58.1289 6.38849 58.1289 6.03382C58.1289 5.47382 58.4649 4.93249 59.1369 4.40982C59.8089 3.86849 60.3596 3.59782 60.7889 3.59782ZM54.0689 14.6298C53.9196 14.8912 53.8449 15.1245 53.8449 15.3298C53.8449 15.5352 53.9569 15.6378 54.1809 15.6378C54.3116 15.6378 54.5356 15.5818 54.8529 15.4698C58.3436 13.6405 61.7596 11.4845 65.1009 9.00182C65.2689 9.13249 65.3529 9.29116 65.3529 9.47782C65.3529 9.66449 65.2596 9.84182 65.0729 10.0098C64.8863 10.1778 64.6156 10.4205 64.2609 10.7378C63.9249 11.0552 63.2716 11.6245 62.3009 12.4458C61.3303 13.2672 60.4249 14.0138 59.5849 14.6858C57.3823 16.4592 55.7583 17.5045 54.7129 17.8218C54.3769 17.9152 54.0129 17.9618 53.6209 17.9618C52.1836 17.9618 51.4649 17.1965 51.4649 15.6658C51.4649 15.0685 51.7916 14.2192 52.4449 13.1178C53.0983 11.9978 53.7703 11.0178 54.4609 10.1778C55.1516 9.31916 55.6089 8.84316 55.8329 8.74982C56.1689 8.54449 56.5329 8.44182 56.9249 8.44182C57.3169 8.44182 57.6903 8.51649 58.0449 8.66582C58.1569 8.72182 58.2129 8.79649 58.2129 8.88982C58.2129 8.98316 58.1196 9.12316 57.9329 9.30982C57.7649 9.49649 57.4943 9.78582 57.1209 10.1778C56.7663 10.5698 56.2249 11.2512 55.4969 12.2218C54.7876 13.1738 54.3116 13.9765 54.0689 14.6298ZM71.1155 8.80582C71.0968 9.47782 70.6768 10.1405 69.8555 10.7938C69.0528 11.4472 68.0728 11.7738 66.9155 11.7738C66.4301 11.7738 66.1875 11.6338 66.1875 11.3538C66.1875 11.2418 66.2715 11.1578 66.4395 11.1018C67.5595 10.4485 68.2688 9.91649 68.5675 9.50582C68.6048 9.43116 68.6235 9.34716 68.6235 9.25382C68.6235 9.16049 68.5768 9.11382 68.4835 9.11382C66.8968 9.33782 65.3848 10.2058 63.9475 11.7178C62.5101 13.2298 61.7915 14.4058 61.7915 15.2458C61.7915 15.6378 61.9408 15.8338 62.2395 15.8338C63.6208 15.8338 65.0768 15.4325 66.6075 14.6298C68.1381 13.8272 70.4155 12.3525 73.4395 10.2058C73.6448 10.0565 73.9528 9.83249 74.3635 9.53382C74.7928 9.23516 75.0448 9.05782 75.1195 9.00182C75.2875 9.13249 75.3715 9.29116 75.3715 9.47782C75.3715 9.66449 75.2875 9.83249 75.1195 9.98182C74.1861 10.9152 72.9728 11.9605 71.4795 13.1178C70.0048 14.2752 68.3061 15.3765 66.3835 16.4218C64.4608 17.4485 62.8928 17.9618 61.6795 17.9618C60.2421 17.9618 59.5235 17.1965 59.5235 15.6658C59.5235 14.6018 59.8781 13.5658 60.5875 12.5578C61.2968 11.5312 62.1648 10.6725 63.1915 9.98182C64.2181 9.29116 65.2915 8.74049 66.4115 8.32982C67.5315 7.90049 68.4275 7.68582 69.0995 7.68582C69.7901 7.68582 70.2848 7.77916 70.5835 7.96582C70.8821 8.15249 71.0408 8.33916 71.0595 8.52582L71.1155 8.80582Z" fill="#666666"/>
</svg>
