<svg width="141" height="34" viewBox="0 0 141 34" fill="none" xmlns="http://www.w3.org/2000/svg">
<path fill-rule="evenodd" clip-rule="evenodd" d="M56.2841 18.8912H48.6523V13.7676H56.2841V18.8912Z" fill="#383838"/>
<path fill-rule="evenodd" clip-rule="evenodd" d="M42.7781 13.6737L26.9513 33.0817H18.8367L0.689453 10.857L6.7117 0.918335H39.0762L44.857 10.4949H34.0733L32.3431 7.74533H13.3912L10.7086 12.2654L22.8872 27.1533L28.5474 20.1117H21.2375L15.9127 13.6737H42.7781Z" fill="#383838"/>
<path fill-rule="evenodd" clip-rule="evenodd" d="M80.9357 5.04941H91.3304V9.34143H89.56V24.7391H91.3304V28.9506H81.9014V24.7391H83.4706V15.9538L78.8299 28.9506H74.8866L70.3263 15.9538V24.7391H72.2175V28.9506H62.0508V24.7391H64.1968V9.34143H62.0508V5.04941H72.9686L77.1131 21.1847L80.9357 5.04941Z" fill="#383838"/>
<path fill-rule="evenodd" clip-rule="evenodd" d="M129.45 28.9506H119.605V24.6586H121.845V9.23413H119.605V5.04941H128.243L132.562 15.2698V9.14024H130.456V5.04941H140.69V9.23413H138.584V24.6586H140.69V28.9506H132.602L127.626 16.7183V24.6586H129.45V28.9506Z" fill="#383838"/>
<path fill-rule="evenodd" clip-rule="evenodd" d="M103.308 28.9506H95.5156V24.8329H96.5886L101.082 9.28778H99.7808L99.7406 5.04941H105.293H110.846L110.806 9.28778H109.505L113.998 24.8329H115.071V28.9506H107.278V24.8329H108.579L108.137 23.4649H105.293H102.45L102.007 24.8329H103.308V28.9506ZM105.293 14.2236L103.483 20.2861H105.293H107.104L105.293 14.2236Z" fill="#383838"/>
</svg>
