<svg width="166" height="39" viewBox="0 0 166 39" fill="none" xmlns="http://www.w3.org/2000/svg">
<path fill-rule="evenodd" clip-rule="evenodd" d="M66.0223 21.4896H57.0273V15.3744H66.0223V21.4896Z" fill="#FEFEFE"/>
<path fill-rule="evenodd" clip-rule="evenodd" d="M50.1028 15.262L31.4489 38.426H21.8848L0.496094 11.9002L7.59405 0.0380859H45.7397L52.5531 11.468H39.8431L37.8038 8.18631H15.4666L12.3049 13.5811L26.6589 31.3503L33.3301 22.946H24.7145L18.4386 15.262H50.1028Z" fill="#FEFEFE"/>
<path fill-rule="evenodd" clip-rule="evenodd" d="M95.0785 4.96875H107.33V10.0914H105.243V28.469H107.33V33.4956H96.2167V28.469H98.0663V17.9835L92.5966 33.4956H87.9489L82.5741 17.9835V28.469H84.8031V33.4956H72.8203V28.469H75.3496V10.0914H72.8203V4.96875H85.6883L90.5731 24.2267L95.0785 4.96875Z" fill="#FEFEFE"/>
<path fill-rule="evenodd" clip-rule="evenodd" d="M152.256 33.4956H140.652V28.3729H143.292V9.96334H140.652V4.96875H150.833L155.923 17.1671V9.85129H153.441V4.96875H165.503V9.96334H163.021V28.3729H165.503V33.4956H155.971L150.106 18.896V28.3729H152.256V33.4956Z" fill="#FEFEFE"/>
<path fill-rule="evenodd" clip-rule="evenodd" d="M121.446 33.4956H112.262V28.581H113.526L118.822 10.0274H117.289L117.241 4.96875H123.786H130.331L130.283 10.0274H128.75L134.046 28.581H135.31V33.4956H126.126V28.581H127.659L127.137 26.9482H123.786H120.435L119.913 28.581H121.446V33.4956ZM123.786 15.9184L121.652 23.1542H123.786H125.92L123.786 15.9184Z" fill="#FEFEFE"/>
</svg>
