<svg width="81" height="30" viewBox="0 0 81 30" fill="none" xmlns="http://www.w3.org/2000/svg">
<path d="M2.89634 12.2058C4.53901 11.3472 5.51901 10.7592 5.83634 10.4418C6.17234 10.1245 6.48968 9.96582 6.78834 9.96582C7.72168 9.96582 8.18834 10.0778 8.18834 10.3018C8.18834 10.5258 7.60034 11.1698 6.42434 12.2338L6.00434 12.5978C5.74301 12.8592 5.31368 13.3445 4.71634 14.0538C4.13768 14.7445 3.84834 15.1925 3.84834 15.3978C3.84834 15.4352 3.86701 15.4538 3.90434 15.4538C4.20301 15.4538 5.01501 14.9312 6.34034 13.8858C7.68434 12.8405 8.54301 12.1125 8.91634 11.7018C9.30834 11.2725 9.56968 11.0578 9.70034 11.0578C9.90568 11.0578 10.055 11.1418 10.1483 11.3098C10.559 11.3845 10.7643 11.5432 10.7643 11.7858C10.7643 11.8978 10.7177 12.0192 10.6243 12.1498C10.531 12.2618 10.0737 12.8032 9.25234 13.7738C8.43101 14.7445 7.90834 15.4072 7.68434 15.7618C7.46034 16.1165 7.22701 16.5645 6.98434 17.1058C6.76034 17.6285 6.64834 17.9738 6.64834 18.1418C6.64834 18.3098 6.69501 18.3938 6.78834 18.3938C6.93768 18.3938 7.24568 18.2165 7.71234 17.8618C8.68301 17.0965 9.89634 15.7898 11.3523 13.9418C12.8083 12.0938 13.6297 10.8338 13.8163 10.1618C14.0217 9.48982 14.199 9.15382 14.3483 9.15382C14.5163 9.15382 14.6843 9.35916 14.8523 9.76982C15.0203 10.1805 15.1043 10.6658 15.1043 11.2258C15.1043 11.7672 14.591 12.7472 13.5643 14.1658C12.5563 15.5845 11.3243 16.9098 9.86834 18.1418C8.41234 19.3738 7.19901 19.9898 6.22834 19.9898C5.12701 19.9898 4.57634 19.4392 4.57634 18.3378C4.57634 17.7032 4.74434 17.0685 5.08034 16.4338C5.09901 16.3778 5.10834 16.3312 5.10834 16.2938C5.10834 16.2378 5.08034 16.2098 5.02434 16.2098C4.98701 16.2098 4.90301 16.2472 4.77234 16.3218L2.08434 18.3938C1.91634 18.5805 1.67368 18.6738 1.35634 18.6738C1.05768 18.6738 0.777677 18.5338 0.516344 18.2538C0.273677 17.9738 0.152344 17.7125 0.152344 17.4698C0.152344 16.4805 1.19768 14.9592 3.28834 12.9058C2.74701 12.9058 2.47634 12.8218 2.47634 12.6538C2.47634 12.5418 2.61634 12.3925 2.89634 12.2058ZM21.6566 11.0018C21.1712 11.0018 20.3499 11.5058 19.1926 12.5138C18.0352 13.5032 17.4566 14.1098 17.4566 14.3338C17.4566 14.3712 17.4846 14.3898 17.5406 14.3898C17.9512 14.3898 18.7632 13.9325 19.9766 13.0178C21.2086 12.1032 21.8246 11.4778 21.8246 11.1418C21.8246 11.0485 21.7686 11.0018 21.6566 11.0018ZM15.6926 19.9618C14.2552 19.9618 13.5366 19.0845 13.5366 17.3298C13.5366 16.2285 14.0126 15.0618 14.9646 13.8298C15.9352 12.5792 17.0739 11.5618 18.3806 10.7778C19.6872 9.97516 20.8446 9.57382 21.8526 9.57382C22.3006 9.57382 22.7112 9.75116 23.0846 10.1058C23.4766 10.4605 23.6726 10.8058 23.6726 11.1418C23.6726 11.7578 23.2339 12.4578 22.3566 13.2418C21.4792 14.0072 20.5552 14.6325 19.5846 15.1178C18.6326 15.5845 17.9979 15.8178 17.6806 15.8178C17.3819 15.8178 17.1579 15.6778 17.0086 15.3978C16.9339 15.3418 16.8312 15.3138 16.7006 15.3138C16.5699 15.3138 16.3552 15.5658 16.0566 16.0698C15.7579 16.5552 15.6086 16.9565 15.6086 17.2738C15.6086 17.5725 15.7206 17.7592 15.9446 17.8338C17.3632 17.8338 18.9032 17.4232 20.5646 16.6018C22.2259 15.7618 24.5219 14.2965 27.4526 12.2058C27.6579 12.0565 27.9659 11.8325 28.3766 11.5338C28.8059 11.2352 29.0579 11.0578 29.1326 11.0018C29.3006 11.1325 29.3846 11.2912 29.3846 11.4778C29.3846 11.6645 29.3006 11.8325 29.1326 11.9818C28.1992 12.9152 26.9859 13.9605 25.4926 15.1178C24.0179 16.2752 22.3192 17.3765 20.3966 18.4218C18.4739 19.4485 16.9059 19.9618 15.6926 19.9618ZM25.3878 17.1058C25.6118 17.1058 26.2931 16.6485 27.4318 15.7338C28.5891 14.8192 29.6904 13.9045 30.7358 12.9898L32.2758 11.6178C32.3504 11.5432 32.3878 11.4965 32.3878 11.4778C32.3878 11.4405 32.3598 11.4218 32.3038 11.4218C31.5944 11.4218 30.6704 11.8325 29.5318 12.6538C28.3931 13.4565 27.4038 14.3152 26.5638 15.2298C25.7424 16.1258 25.3318 16.7325 25.3318 17.0498C25.3318 17.0872 25.3504 17.1058 25.3878 17.1058ZM30.2318 17.5258C30.2318 17.5818 30.2878 17.6098 30.3998 17.6098C30.5304 17.6098 31.0811 17.3298 32.0518 16.7698C34.5904 15.3325 37.5771 13.4098 41.0118 11.0018C41.1798 11.1325 41.2638 11.2912 41.2638 11.4778C41.2638 11.6645 41.1704 11.8418 40.9838 12.0098C40.7971 12.1778 40.5264 12.4205 40.1718 12.7378C39.8358 13.0552 39.1824 13.6245 38.2118 14.4458C37.2411 15.2672 36.3358 16.0138 35.4958 16.6858C33.2931 18.4592 31.6691 19.5045 30.6238 19.8218C30.2878 19.9152 29.9238 19.9618 29.5318 19.9618C29.1584 19.9058 28.8131 19.7658 28.4958 19.5418C28.1971 19.3178 28.0478 19.0565 28.0478 18.7578C28.0478 18.4592 28.1131 18.0205 28.2438 17.4418C28.3931 16.8445 28.4678 16.5272 28.4678 16.4898C28.4678 16.4338 28.4491 16.4058 28.4118 16.4058C28.3931 16.4058 28.3464 16.4432 28.2718 16.5178C28.0291 16.7792 27.7211 17.1058 27.3478 17.4978C26.9744 17.8712 26.3304 18.3845 25.4158 19.0378C24.5198 19.6725 23.7918 19.9898 23.2318 19.9898C23.1384 19.9712 23.0264 19.9338 22.8958 19.8778C22.7464 19.8405 22.5598 19.6912 22.3358 19.4298C22.1118 19.1685 21.9998 18.7952 21.9998 18.3098C21.9998 17.8245 22.3638 17.0872 23.0918 16.0978C23.8198 15.0898 24.7064 14.1098 25.7518 13.1578C26.7971 12.1872 27.9451 11.3472 29.1958 10.6378C30.4464 9.92849 31.5384 9.57382 32.4718 9.57382C32.8078 9.57382 33.0878 9.82582 33.3118 10.3298C33.2931 10.1992 33.8998 9.35916 35.1318 7.80982C36.3638 6.24182 37.8198 4.67382 39.4998 3.10582C41.1984 1.51916 42.5144 0.725824 43.4478 0.725824C43.7651 0.725824 43.9238 0.875157 43.9238 1.17382C43.9238 1.64049 43.6064 2.27516 42.9718 3.07782C42.3558 3.88049 41.6838 4.62716 40.9558 5.31782C40.2464 6.00849 39.3224 6.87649 38.1838 7.92182C35.5518 10.3112 33.5638 12.3458 32.2198 14.0258C30.8944 15.7058 30.2318 16.8725 30.2318 17.5258ZM37.9112 17.1058C38.1352 17.1058 38.8166 16.6485 39.9552 15.7338C41.1126 14.8192 42.2139 13.9045 43.2592 12.9898L44.7992 11.6178C44.8739 11.5432 44.9112 11.4965 44.9112 11.4778C44.9112 11.4405 44.8832 11.4218 44.8272 11.4218C44.1179 11.4218 43.1939 11.8325 42.0552 12.6538C40.9166 13.4565 39.9272 14.3152 39.0872 15.2298C38.2659 16.1258 37.8552 16.7325 37.8552 17.0498C37.8552 17.0872 37.8739 17.1058 37.9112 17.1058ZM42.7552 17.5258C42.7552 17.5818 42.8112 17.6098 42.9232 17.6098C43.0539 17.6098 43.6046 17.3298 44.5752 16.7698C47.1139 15.3325 50.1006 13.4098 53.5352 11.0018C53.7032 11.1325 53.7872 11.2912 53.7872 11.4778C53.7872 11.6645 53.6939 11.8418 53.5072 12.0098C53.3206 12.1778 53.0499 12.4205 52.6952 12.7378C52.3592 13.0552 51.7059 13.6245 50.7352 14.4458C49.7646 15.2672 48.8592 16.0138 48.0192 16.6858C45.8166 18.4592 44.1926 19.5045 43.1472 19.8218C42.8112 19.9152 42.4472 19.9618 42.0552 19.9618C41.6819 19.9058 41.3366 19.7658 41.0192 19.5418C40.7206 19.3178 40.5712 19.0565 40.5712 18.7578C40.5712 18.4592 40.6366 18.0205 40.7672 17.4418C40.9166 16.8445 40.9912 16.5272 40.9912 16.4898C40.9912 16.4338 40.9726 16.4058 40.9352 16.4058C40.9166 16.4058 40.8699 16.4432 40.7952 16.5178C40.5526 16.7792 40.2446 17.1058 39.8712 17.4978C39.4979 17.8712 38.8539 18.3845 37.9392 19.0378C37.0432 19.6725 36.3152 19.9898 35.7552 19.9898C35.6619 19.9712 35.5499 19.9338 35.4192 19.8778C35.2699 19.8405 35.0832 19.6912 34.8592 19.4298C34.6352 19.1685 34.5232 18.7952 34.5232 18.3098C34.5232 17.8245 34.8872 17.0872 35.6152 16.0978C36.3432 15.0898 37.2299 14.1098 38.2752 13.1578C39.3206 12.1872 40.4686 11.3472 41.7192 10.6378C42.9699 9.92849 44.0619 9.57382 44.9952 9.57382C45.3312 9.57382 45.6112 9.82582 45.8352 10.3298C45.8166 10.1992 46.4232 9.35916 47.6552 7.80982C48.8872 6.24182 50.3432 4.67382 52.0232 3.10582C53.7219 1.51916 55.0379 0.725824 55.9712 0.725824C56.2886 0.725824 56.4472 0.875157 56.4472 1.17382C56.4472 1.64049 56.1299 2.27516 55.4952 3.07782C54.8792 3.88049 54.2072 4.62716 53.4792 5.31782C52.7699 6.00849 51.8459 6.87649 50.7072 7.92182C48.0752 10.3112 46.0872 12.3458 44.7432 14.0258C43.4179 15.7058 42.7552 16.8725 42.7552 17.5258ZM58.0507 5.59782C58.2373 5.59782 58.3587 5.63516 58.4147 5.70982C58.676 6.02716 58.8067 6.28849 58.8067 6.49382C58.8067 6.68049 58.7507 6.84849 58.6387 6.99782C58.5267 7.12849 58.3867 7.28716 58.2187 7.47382C58.0693 7.64182 57.752 7.88449 57.2667 8.20182C56.8 8.50049 56.3427 8.64982 55.8947 8.64982C55.5587 8.59382 55.3907 8.38849 55.3907 8.03382C55.3907 7.47382 55.7267 6.93249 56.3987 6.40982C57.0707 5.86849 57.6213 5.59782 58.0507 5.59782ZM51.3307 16.6298C51.1813 16.8912 51.1067 17.1245 51.1067 17.3298C51.1067 17.5352 51.2187 17.6378 51.4427 17.6378C51.5733 17.6378 51.7973 17.5818 52.1147 17.4698C55.6053 15.6405 59.0213 13.4845 62.3627 11.0018C62.5307 11.1325 62.6147 11.2912 62.6147 11.4778C62.6147 11.6645 62.5213 11.8418 62.3347 12.0098C62.148 12.1778 61.8773 12.4205 61.5227 12.7378C61.1867 13.0552 60.5333 13.6245 59.5627 14.4458C58.592 15.2672 57.6867 16.0138 56.8467 16.6858C54.644 18.4592 53.02 19.5045 51.9747 19.8218C51.6387 19.9152 51.2747 19.9618 50.8827 19.9618C49.4453 19.9618 48.7267 19.1965 48.7267 17.6658C48.7267 17.0685 49.0533 16.2192 49.7067 15.1178C50.36 13.9978 51.032 13.0178 51.7227 12.1778C52.4133 11.3192 52.8707 10.8432 53.0947 10.7498C53.4307 10.5445 53.7947 10.4418 54.1867 10.4418C54.5787 10.4418 54.952 10.5165 55.3067 10.6658C55.4187 10.7218 55.4747 10.7965 55.4747 10.8898C55.4747 10.9832 55.3813 11.1232 55.1947 11.3098C55.0267 11.4965 54.756 11.7858 54.3827 12.1778C54.028 12.5698 53.4867 13.2512 52.7587 14.2218C52.0493 15.1738 51.5733 15.9765 51.3307 16.6298ZM62.7492 10.1898C62.8985 10.1898 63.1412 10.2645 63.4772 10.4138C63.8319 10.5632 64.0092 10.7312 64.0092 10.9178C64.0092 11.0485 63.9625 11.1792 63.8692 11.3098L61.7692 14.2218C61.5265 14.5205 61.4052 14.6885 61.4052 14.7258C61.4052 14.7632 61.4145 14.7818 61.4332 14.7818L61.5732 14.6978C63.7385 13.1858 65.5212 11.8605 66.9212 10.7218C67.1825 10.5352 67.3972 10.4418 67.5652 10.4418C67.7519 10.4418 67.8732 10.4605 67.9292 10.4978L68.7132 10.7218C68.8999 10.8152 68.9932 10.9365 68.9932 11.0858C68.9932 11.2352 68.9559 11.3565 68.8812 11.4498C68.5265 11.8418 68.1159 12.2898 67.6492 12.7938C67.2012 13.2792 66.8652 13.6525 66.6412 13.9138C66.4172 14.1565 66.1652 14.4365 65.8852 14.7538C65.6052 15.0712 65.3999 15.3138 65.2692 15.4818C65.1572 15.6498 65.0265 15.8458 64.8772 16.0698C64.7279 16.2752 64.6252 16.4525 64.5692 16.6018C64.4572 17.0312 64.4012 17.4045 64.4012 17.7218C64.4012 17.8898 64.5039 17.9738 64.7092 17.9738C64.9332 17.9738 65.3252 17.8432 65.8852 17.5818C66.4639 17.3205 67.1452 16.9192 67.9292 16.3778C68.7319 15.8365 69.7865 15.0712 71.0932 14.0818C72.4185 13.0738 73.5759 12.2245 74.5652 11.5338C74.7332 11.6645 74.8172 11.8232 74.8172 12.0098C74.8172 12.1965 74.7332 12.3645 74.5652 12.5138C73.9679 13.0925 73.2119 13.8205 72.2972 14.6978C71.3825 15.5565 69.9825 16.7138 68.0972 18.1698C66.2305 19.6258 64.9239 20.3538 64.1772 20.3538C62.7399 20.3538 62.0212 19.5885 62.0212 18.0578C62.0212 17.4792 62.2452 16.8725 62.6932 16.2378L63.8972 14.5858C64.0092 14.4178 64.0652 14.3245 64.0652 14.3058C64.0652 14.2685 64.0092 14.2965 63.8972 14.3898C60.6492 17.0965 58.5772 18.6832 57.6812 19.1498C57.5319 19.2432 57.3452 19.2898 57.1212 19.2898C56.5052 19.2898 56.1972 19.0098 56.1972 18.4498C56.1972 18.2632 56.2439 18.0952 56.3372 17.9458C57.7185 16.6765 58.6892 15.6405 59.2492 14.8378C59.6972 14.3898 60.1639 13.7645 60.6492 12.9618C61.1532 12.1592 61.5732 11.4965 61.9092 10.9738C62.2639 10.4512 62.5439 10.1898 62.7492 10.1898ZM80.4883 11.2818C80.7683 11.4872 80.9083 11.6832 80.9083 11.8698C80.9083 12.0378 80.8243 12.1965 80.6563 12.3458C80.5069 12.4952 79.6389 13.6432 78.0523 15.7898C76.4656 17.9178 75.3923 19.3832 74.8323 20.1858C74.2909 20.9885 73.9083 21.5672 73.6843 21.9218C73.4603 22.2952 72.9936 22.9485 72.2843 23.8818C71.5936 24.8152 70.8936 25.6552 70.1843 26.4018C69.4749 27.1672 68.6256 27.8952 67.6363 28.5858C66.6283 29.2952 65.6669 29.7432 64.7523 29.9298C64.3603 29.9298 63.9683 29.8458 63.5763 29.6778C62.8296 29.3605 62.4563 28.7725 62.4563 27.9138C62.4563 26.8312 63.4736 25.5525 65.5083 24.0778C67.5243 22.6218 69.0269 21.8938 70.0163 21.8938C70.1656 21.8938 70.2403 21.9218 70.2403 21.9778C70.2403 22.0338 70.1469 22.1272 69.9603 22.2578C68.3549 23.3592 66.8989 24.5445 65.5923 25.8138C64.2669 27.1018 63.6043 28.0165 63.6043 28.5578C63.6043 28.6325 63.6603 28.6698 63.7723 28.6698C63.8843 28.6698 64.1269 28.5485 64.5003 28.3058C65.3963 27.6712 66.6656 26.5138 68.3083 24.8338C70.1189 22.8178 71.2296 21.5298 71.6403 20.9698C72.3683 19.9805 73.2363 18.9538 74.2443 17.8898L74.8043 17.3018C74.8229 17.2645 74.8509 17.2272 74.8883 17.1898C74.9256 17.1525 74.9723 17.0872 75.0283 16.9938C75.1776 16.7512 75.2429 16.6298 75.2243 16.6298C75.1683 16.6298 75.0469 16.7232 74.8603 16.9098C74.6736 17.0965 74.4029 17.3578 74.0483 17.6938C73.7123 18.0112 73.1336 18.4498 72.3123 19.0098C71.4909 19.5512 70.8283 19.8218 70.3243 19.8218C69.8203 19.8218 69.4283 19.6538 69.1483 19.3178C68.8683 18.9818 68.7283 18.6272 68.7283 18.2538C68.7283 17.8618 68.9709 17.2832 69.4563 16.5178C69.9416 15.7525 70.5763 14.9218 71.3603 14.0258C72.1443 13.1298 73.1523 12.2992 74.3843 11.5338C75.6349 10.7685 76.9136 10.3112 78.2203 10.1618C78.9856 10.3298 79.4803 10.6005 79.7043 10.9738C79.7416 10.9552 79.8163 10.9458 79.9283 10.9458C80.0403 10.9458 80.2269 11.0578 80.4883 11.2818ZM71.8083 17.1898C72.2936 17.1525 73.1336 16.7045 74.3283 15.8458C75.5416 14.9872 76.6336 14.1285 77.6043 13.2698C78.5936 12.4112 79.0883 11.9165 79.0883 11.7858C79.0883 11.7485 79.0509 11.7298 78.9763 11.7298C78.0056 11.9352 76.9229 12.4485 75.7283 13.2698C74.5336 14.0912 73.5629 14.8845 72.8163 15.6498C72.0696 16.4152 71.6963 16.9005 71.6963 17.1058C71.6963 17.1618 71.7336 17.1898 71.8083 17.1898Z" fill="#F2F2F2"/>
</svg>
