<svg width="81" height="28" viewBox="0 0 81 28" fill="none" xmlns="http://www.w3.org/2000/svg">
<path d="M8.30109 9.00182C7.81576 9.00182 6.99443 9.50582 5.83709 10.5138C4.67976 11.5032 4.10109 12.1098 4.10109 12.3338C4.10109 12.3712 4.12909 12.3898 4.18509 12.3898C4.59576 12.3898 5.40776 11.9325 6.62109 11.0178C7.85309 10.1032 8.46909 9.47782 8.46909 9.14182C8.46909 9.04849 8.41309 9.00182 8.30109 9.00182ZM2.33709 17.9618C0.89976 17.9618 0.181094 17.0845 0.181094 15.3298C0.181094 14.2285 0.657094 13.0618 1.60909 11.8298C2.57976 10.5792 3.71843 9.56182 5.02509 8.77782C6.33176 7.97516 7.48909 7.57382 8.49709 7.57382C8.94509 7.57382 9.35576 7.75116 9.72909 8.10582C10.1211 8.46049 10.3171 8.80582 10.3171 9.14182C10.3171 9.75782 9.87843 10.4578 9.00109 11.2418C8.12376 12.0072 7.19976 12.6325 6.22909 13.1178C5.27709 13.5845 4.64243 13.8178 4.32509 13.8178C4.02643 13.8178 3.80243 13.6778 3.65309 13.3978C3.57843 13.3418 3.47576 13.3138 3.34509 13.3138C3.21443 13.3138 2.99976 13.5658 2.70109 14.0698C2.40243 14.5552 2.25309 14.9565 2.25309 15.2738C2.25309 15.5725 2.36509 15.7592 2.58909 15.8338C4.00776 15.8338 5.54776 15.4232 7.20909 14.6018C8.87043 13.7618 11.1664 12.2965 14.0971 10.2058C14.3024 10.0565 14.6104 9.83249 15.0211 9.53382C15.4504 9.23516 15.7024 9.05782 15.7771 9.00182C15.9451 9.13249 16.0291 9.29116 16.0291 9.47782C16.0291 9.66449 15.9451 9.83249 15.7771 9.98182C14.8438 10.9152 13.6304 11.9605 12.1371 13.1178C10.6624 14.2752 8.96376 15.3765 7.04109 16.4218C5.11843 17.4485 3.55043 17.9618 2.33709 17.9618ZM13.5723 15.6098C14.1883 15.6098 15.4016 15.0592 17.2123 13.9578C19.0416 12.8565 20.703 11.7552 22.1963 10.6538L24.4643 9.00182C24.6323 9.13249 24.7163 9.29116 24.7163 9.47782C24.7163 9.66449 24.623 9.84182 24.4363 10.0098C24.2496 10.1778 23.979 10.4205 23.6243 10.7378C23.2883 11.0552 22.635 11.6245 21.6643 12.4458C20.6936 13.2672 19.7883 14.0138 18.9483 14.6858C16.7456 16.4592 15.1216 17.5045 14.0763 17.8218C13.7403 17.9152 13.395 17.9618 13.0403 17.9618C12.6856 17.9618 12.4056 17.9338 12.2003 17.8778C11.995 17.8218 11.771 17.7005 11.5283 17.5138C11.043 17.1032 10.8003 16.1885 10.8003 14.7698C10.8003 14.3778 10.9683 13.7805 11.3043 12.9778C11.6403 12.1752 12.191 11.2045 12.9563 10.0658C13.7403 8.92716 14.6456 7.78849 15.6723 6.64982C16.7176 5.51116 18.0336 4.37249 19.6203 3.23382C21.2256 2.09516 22.9336 1.17116 24.7443 0.461823C25.0243 0.36849 25.2763 0.321823 25.5003 0.321823C25.7243 0.321823 25.9296 0.42449 26.1163 0.629824C26.303 0.816491 26.4336 1.01249 26.5083 1.21782L26.6483 1.49782C26.6483 1.92716 25.9856 2.86982 24.6603 4.32582C23.2976 5.83782 21.7203 7.28449 19.9283 8.66582C18.155 10.0285 16.503 11.1952 14.9723 12.1658C13.7216 12.9872 13.0963 13.8458 13.0963 14.7418C13.0963 15.3205 13.255 15.6098 13.5723 15.6098ZM16.0923 9.81382C16.559 9.81382 17.9683 8.66582 20.3203 6.36982C22.691 4.07382 23.8763 2.79516 23.8763 2.53382L23.8483 2.47782L23.3723 2.70182C22.4016 3.33649 21.1043 4.41916 19.4803 5.94982C17.875 7.48049 16.7643 8.67516 16.1483 9.53382C16.0736 9.62716 16.0363 9.70182 16.0363 9.75782C16.0363 9.79516 16.055 9.81382 16.0923 9.81382ZM27.7152 9.00182C27.2298 9.00182 26.4085 9.50582 25.2512 10.5138C24.0938 11.5032 23.5152 12.1098 23.5152 12.3338C23.5152 12.3712 23.5432 12.3898 23.5992 12.3898C24.0098 12.3898 24.8218 11.9325 26.0352 11.0178C27.2672 10.1032 27.8832 9.47782 27.8832 9.14182C27.8832 9.04849 27.8272 9.00182 27.7152 9.00182ZM21.7512 17.9618C20.3138 17.9618 19.5952 17.0845 19.5952 15.3298C19.5952 14.2285 20.0712 13.0618 21.0232 11.8298C21.9938 10.5792 23.1325 9.56182 24.4392 8.77782C25.7458 7.97516 26.9032 7.57382 27.9112 7.57382C28.3592 7.57382 28.7698 7.75116 29.1432 8.10582C29.5352 8.46049 29.7312 8.80582 29.7312 9.14182C29.7312 9.75782 29.2925 10.4578 28.4152 11.2418C27.5378 12.0072 26.6138 12.6325 25.6432 13.1178C24.6912 13.5845 24.0565 13.8178 23.7392 13.8178C23.4405 13.8178 23.2165 13.6778 23.0672 13.3978C22.9925 13.3418 22.8898 13.3138 22.7592 13.3138C22.6285 13.3138 22.4138 13.5658 22.1152 14.0698C21.8165 14.5552 21.6672 14.9565 21.6672 15.2738C21.6672 15.5725 21.7792 15.7592 22.0032 15.8338C23.4218 15.8338 24.9618 15.4232 26.6232 14.6018C28.2845 13.7618 30.5805 12.2965 33.5112 10.2058C33.7165 10.0565 34.0245 9.83249 34.4352 9.53382C34.8645 9.23516 35.1165 9.05782 35.1912 9.00182C35.3592 9.13249 35.4432 9.29116 35.4432 9.47782C35.4432 9.66449 35.3592 9.83249 35.1912 9.98182C34.2578 10.9152 33.0445 11.9605 31.5512 13.1178C30.0765 14.2752 28.3778 15.3765 26.4552 16.4218C24.5325 17.4485 22.9645 17.9618 21.7512 17.9618ZM39.7344 9.28182C40.0144 9.48716 40.1544 9.68316 40.1544 9.86982C40.1544 10.0378 40.0704 10.1965 39.9024 10.3458C39.753 10.4952 38.885 11.6432 37.2984 13.7898C35.7117 15.9178 34.6384 17.3832 34.0784 18.1858C33.537 18.9885 33.1544 19.5672 32.9304 19.9218C32.7064 20.2952 32.2397 20.9485 31.5304 21.8818C30.8397 22.8152 30.1397 23.6552 29.4304 24.4018C28.721 25.1672 27.8717 25.8952 26.8824 26.5858C25.8744 27.2952 24.913 27.7432 23.9984 27.9298C23.6064 27.9298 23.2144 27.8458 22.8224 27.6778C22.0757 27.3605 21.7024 26.7725 21.7024 25.9138C21.7024 24.8312 22.7197 23.5525 24.7544 22.0778C26.7704 20.6218 28.273 19.8938 29.2624 19.8938C29.4117 19.8938 29.4864 19.9218 29.4864 19.9778C29.4864 20.0338 29.393 20.1272 29.2064 20.2578C27.601 21.3592 26.145 22.5445 24.8384 23.8138C23.513 25.1018 22.8504 26.0165 22.8504 26.5578C22.8504 26.6325 22.9064 26.6698 23.0184 26.6698C23.1304 26.6698 23.373 26.5485 23.7464 26.3058C24.6424 25.6712 25.9117 24.5138 27.5544 22.8338C29.365 20.8178 30.4757 19.5298 30.8864 18.9698C31.6144 17.9805 32.4824 16.9538 33.4904 15.8898L34.0504 15.3018C34.069 15.2645 34.097 15.2272 34.1344 15.1898C34.1717 15.1525 34.2184 15.0872 34.2744 14.9938C34.4237 14.7512 34.489 14.6298 34.4704 14.6298C34.4144 14.6298 34.293 14.7232 34.1064 14.9098C33.9197 15.0965 33.649 15.3578 33.2944 15.6938C32.9584 16.0112 32.3797 16.4498 31.5584 17.0098C30.737 17.5512 30.0744 17.8218 29.5704 17.8218C29.0664 17.8218 28.6744 17.6538 28.3944 17.3178C28.1144 16.9818 27.9744 16.6272 27.9744 16.2538C27.9744 15.8618 28.217 15.2832 28.7024 14.5178C29.1877 13.7525 29.8224 12.9218 30.6064 12.0258C31.3904 11.1298 32.3984 10.2992 33.6304 9.53382C34.881 8.76849 36.1597 8.31116 37.4664 8.16182C38.2317 8.32982 38.7264 8.60049 38.9504 8.97382C38.9877 8.95516 39.0624 8.94582 39.1744 8.94582C39.2864 8.94582 39.473 9.05782 39.7344 9.28182ZM31.0544 15.1898C31.5397 15.1525 32.3797 14.7045 33.5744 13.8458C34.7877 12.9872 35.8797 12.1285 36.8504 11.2698C37.8397 10.4112 38.3344 9.91649 38.3344 9.78582C38.3344 9.74849 38.297 9.72982 38.2224 9.72982C37.2517 9.93516 36.169 10.4485 34.9744 11.2698C33.7797 12.0912 32.809 12.8845 32.0624 13.6498C31.3157 14.4152 30.9424 14.9005 30.9424 15.1058C30.9424 15.1618 30.9797 15.1898 31.0544 15.1898ZM43.1871 16.2818L43.4111 14.4898C43.4111 14.4338 43.3925 14.4058 43.3551 14.4058C43.3365 14.4058 43.2898 14.4432 43.2151 14.5178C42.9725 14.7792 42.6645 15.1058 42.2911 15.4978C41.9178 15.8712 41.2738 16.3845 40.3591 17.0378C39.4631 17.6725 38.7351 17.9898 38.1751 17.9898C38.0818 17.9712 37.9698 17.9338 37.8391 17.8778C37.6898 17.8405 37.5031 17.6912 37.2791 17.4298C37.0551 17.1685 36.9431 16.7952 36.9431 16.3098C36.9431 15.8245 37.3165 15.0872 38.0631 14.0978C38.7911 13.0898 39.6685 12.1098 40.6951 11.1578C41.7218 10.1872 42.8605 9.34716 44.1111 8.63782C45.3805 7.92849 46.4818 7.57382 47.4151 7.57382C47.7698 7.59249 48.0498 7.84449 48.2551 8.32982C48.4418 8.14316 48.6098 8.04982 48.7591 8.04982C48.9085 8.04982 49.0858 8.16182 49.2911 8.38582C49.4031 8.40449 49.5151 8.46982 49.6271 8.58182C49.7391 8.67516 49.7951 8.81516 49.7951 9.00182C49.7951 9.18849 49.6645 9.39382 49.4031 9.61782C49.0111 10.1032 48.5538 10.6538 48.0311 11.2698C47.5085 11.8858 47.1351 12.3338 46.9111 12.6138C46.6871 12.8752 46.4538 13.1738 46.2111 13.5098C45.8005 14.0885 45.5765 14.5552 45.5391 14.9098C47.4431 13.9952 50.4391 12.0258 54.5271 9.00182C54.6951 9.13249 54.7791 9.29116 54.7791 9.47782C54.7791 9.66449 54.7045 9.82316 54.5551 9.95382C54.4058 10.0845 54.2191 10.2432 53.9951 10.4298C53.7898 10.6165 53.3698 10.9805 52.7351 11.5218C52.1005 12.0632 51.4845 12.5858 50.8871 13.0898C50.3085 13.5752 49.6365 14.1258 48.8711 14.7418C48.1245 15.3392 47.4525 15.8525 46.8551 16.2818C45.4178 17.3085 44.5218 17.8218 44.1671 17.8218C43.8125 17.8218 43.5605 17.7098 43.4111 17.4858C43.2618 17.2618 43.1871 16.8605 43.1871 16.2818ZM40.3311 15.1058C40.5551 15.1058 41.2365 14.6485 42.3751 13.7338C43.5325 12.8192 44.6245 11.9045 45.6511 10.9898L47.2191 9.61782C47.2938 9.54316 47.3311 9.49649 47.3311 9.47782C47.3311 9.44049 47.3031 9.42182 47.2471 9.42182C46.5378 9.42182 45.6138 9.83249 44.4751 10.6538C43.3365 11.4565 42.3471 12.3152 41.5071 13.2298C40.6858 14.1258 40.2751 14.7325 40.2751 15.0498C40.2751 15.0872 40.2938 15.1058 40.3311 15.1058ZM55.2453 8.18982C55.3946 8.18982 55.6373 8.26449 55.9733 8.41382C56.3279 8.56316 56.5053 8.73116 56.5053 8.91782C56.5053 9.04849 56.4586 9.17916 56.3653 9.30982L54.2653 12.2218C54.0226 12.5205 53.9013 12.6885 53.9013 12.7258C53.9013 12.7632 53.9106 12.7818 53.9293 12.7818L54.0693 12.6978C56.2346 11.1858 58.0173 9.86049 59.4173 8.72182C59.6786 8.53516 59.8933 8.44182 60.0613 8.44182C60.2479 8.44182 60.3693 8.46049 60.4253 8.49782L61.2093 8.72182C61.3959 8.81516 61.4893 8.93649 61.4893 9.08582C61.4893 9.23516 61.4519 9.35649 61.3773 9.44982C61.0226 9.84182 60.6119 10.2898 60.1453 10.7938C59.6973 11.2792 59.3613 11.6525 59.1373 11.9138C58.9133 12.1565 58.6613 12.4365 58.3813 12.7538C58.1013 13.0712 57.8959 13.3138 57.7653 13.4818C57.6533 13.6498 57.5226 13.8458 57.3733 14.0698C57.2239 14.2752 57.1213 14.4525 57.0653 14.6018C56.9533 15.0312 56.8973 15.4045 56.8973 15.7218C56.8973 15.8898 56.9999 15.9738 57.2053 15.9738C57.4293 15.9738 57.8213 15.8432 58.3813 15.5818C58.9599 15.3205 59.6413 14.9192 60.4253 14.3778C61.2279 13.8365 62.2826 13.0712 63.5893 12.0818C64.9146 11.0738 66.0719 10.2245 67.0613 9.53382C67.2293 9.66449 67.3133 9.82316 67.3133 10.0098C67.3133 10.1965 67.2293 10.3645 67.0613 10.5138C66.4639 11.0925 65.7079 11.8205 64.7933 12.6978C63.8786 13.5565 62.4786 14.7138 60.5933 16.1698C58.7266 17.6258 57.4199 18.3538 56.6733 18.3538C55.2359 18.3538 54.5173 17.5885 54.5173 16.0578C54.5173 15.4792 54.7413 14.8725 55.1893 14.2378L56.3933 12.5858C56.5053 12.4178 56.5613 12.3245 56.5613 12.3058C56.5613 12.2685 56.5053 12.2965 56.3933 12.3898C53.1453 15.0965 51.0733 16.6832 50.1773 17.1498C50.0279 17.2432 49.8413 17.2898 49.6173 17.2898C49.0013 17.2898 48.6933 17.0098 48.6933 16.4498C48.6933 16.2632 48.7399 16.0952 48.8333 15.9458C50.2146 14.6765 51.1853 13.6405 51.7453 12.8378C52.1933 12.3898 52.6599 11.7645 53.1453 10.9618C53.6493 10.1592 54.0693 9.49649 54.4053 8.97382C54.7599 8.45116 55.0399 8.18982 55.2453 8.18982ZM74.8442 4.52182L76.2722 4.49382C78.1202 4.49382 79.4642 4.75516 80.3042 5.27782C80.7149 5.40849 80.9202 5.57649 80.9202 5.78182C80.9202 5.93116 80.7335 6.03382 80.3602 6.08982C80.0055 6.14582 78.7455 6.29516 76.5802 6.53782C74.4335 6.76182 72.9589 6.89249 72.1562 6.92982C71.8015 6.94849 70.9802 7.56449 69.6922 8.77782C68.4229 9.99116 67.2095 11.3258 66.0522 12.7818C64.8949 14.2378 64.3162 15.2552 64.3162 15.8338C64.3162 15.9272 64.3629 16.0112 64.4562 16.0858C64.5495 16.1418 64.6615 16.1698 64.7922 16.1698C64.9415 16.1698 65.1655 16.1138 65.4642 16.0018C69.0109 13.9112 72.4549 11.6245 75.7962 9.14182C75.9642 9.27249 76.0482 9.43116 76.0482 9.61782C76.0482 9.80449 75.9549 9.99116 75.7682 10.1778C75.5815 10.3458 75.3015 10.5978 74.9282 10.9338C74.5735 11.2698 73.9015 11.8765 72.9122 12.7538C71.9229 13.6312 70.9895 14.4152 70.1122 15.1058C67.7602 17.0098 66.1175 18.1112 65.1842 18.4098C64.8482 18.5032 64.4469 18.5498 63.9802 18.5498C63.5322 18.5498 63.1122 18.3165 62.7202 17.8498C62.3469 17.3832 62.1602 16.7485 62.1602 15.9458C62.1602 15.1432 62.6735 13.9858 63.7002 12.4738C64.7455 10.9618 66.1642 9.41249 67.9562 7.82582C68.1242 7.69516 68.2082 7.57382 68.2082 7.46182C68.2082 7.34982 68.0122 7.29382 67.6202 7.29382L65.8562 7.34982C63.3735 7.34982 62.0949 7.06982 62.0202 6.50982C61.4415 6.39782 61.1522 6.22982 61.1522 6.00582C61.1522 5.93116 61.1895 5.89382 61.2642 5.89382C61.3389 5.87516 61.4042 5.86582 61.4602 5.86582C61.5162 5.84716 61.6095 5.82849 61.7402 5.80982C61.8709 5.79116 62.8975 5.64182 64.8202 5.36182C66.7615 5.08182 68.9642 4.84849 71.4282 4.66182L73.3602 2.08582C73.4722 1.86182 73.8642 1.74982 74.5362 1.74982C75.2082 1.74982 75.5442 1.88982 75.5442 2.16982C75.5442 2.26316 75.4695 2.43116 75.3202 2.67382L74.6202 3.65382C74.5269 3.95249 74.4709 4.17649 74.4522 4.32582C74.4522 4.45649 74.5829 4.52182 74.8442 4.52182Z" fill="#666666"/>
</svg>
